<svg xmlns="http://www.w3.org/2000/svg" viewBox="0 0 1312.74 1333.33" shape-rendering="geometricPrecision" text-rendering="geometricPrecision" image-rendering="optimizeQuality" fill-rule="evenodd" clip-rule="evenodd"><path d="M326.28 709.5l-7.72 224.96-84.69-57.69-84.7 47.87 17.46-241.11-120.04-16.56v505.46l442.07 50.23v-495.1l-162.37-18.05zm735.85-644.91c4.51-.88 9.19-.03 13.09 2.35 6.63 2.74 11.31 9.26 11.34 16.89l3.76 520.74 194.13 25.45c4.51-.88 9.2-.02 13.09 2.35 6.63 2.74 11.31 9.26 11.34 16.89l3.85 533.7c.31 6.55-2.89 13.06-8.91 16.66l-217.98 130.02c-3.08 2.33-6.92 3.7-11.08 3.7-1.01 0-2.01-.08-2.98-.24l-565.64-62.89c-1.37-.07-2.7-.29-3.97-.63l-484.69-62.33c-9.74-.48-17.48-8.53-17.48-18.39V646.12h.03c-.22-7.26 3.91-14.28 10.97-17.39l255.34-112.24V143.65h.03c-.22-7.26 3.91-14.28 10.97-17.39L561.08 1.53l.01.03c2.97-1.31 6.32-1.85 9.77-1.4l491.26 64.42v.01zm10.79 574.71L902.36 741.04l169.35 21.61 162.2-102.24-160.99-21.11zm-806.57-35.54v-47.1l-180.9 79.52 103.86 13.25 77.04-45.67zm604.51-366.91v480.24l162.89-97.17 19.87-16.84-3.52-479.2-179.24 112.98zm-46.59 492.12V232.23l-231.45-30.78-7.91 230.54-84.7-57.69-84.7 47.87 17.46-241.11-129.81-16.56v505.46l521.1 59.02zM795.9 66.69L617.99 167.68l231.42 29.53 162.2-102.24-215.7-28.28zm-340.25 80.27l172.5-102.27-56.88-7.46-219.48 96.48 103.86 13.25zm637.53 655.32v480.24l182.8-109.04-3.56-484.17-179.24 112.97zm-46.59 492.12V797.66l-231.45-30.78-7.91 230.54-84.69-57.69-84.7 47.87 17.46-241.11-120.04-11.68v505.46l511.33 54.14z" fill-rule="nonzero"/></svg>