<svg xmlns="http://www.w3.org/2000/svg"  viewBox="0 0 306568 333334" shape-rendering="geometricPrecision" text-rendering="geometricPrecision" image-rendering="optimizeQuality" fill-rule="evenodd" clip-rule="evenodd"><path d="M119714 276849c-3087 69-5803-2187-6236-5319-451-3260 1736-6277 4928-6896-3535-19988-13159-31002-23330-42643-7918-9062-16140-18473-22621-32332-6385-13655-9882-27750-9755-42393 126-14648 3865-29733 11945-45339 51-99 105-196 161-291l-4-2c10614-17957 25438-29942 41960-36686 13864-5659 28923-7592 43675-6241 14709 1346 29102 5959 41681 13394 16018 9467 29161 23515 36400 41248 3919 9599 6567 20326 6889 32052 321 11698-1687 24303-7078 37647-7222 17879-16763 28978-25695 39370-8224 9568-15883 18482-20123 32115 2403 570 4326 2562 4685 5156 467 3372-1890 6485-5262 6952l-2081 295c-384 2969-632 6139-731 9534l682-97c3372-466 6485 1890 6952 5263 467 3372-1890 6485-5262 6952l-2109 300c27 409 53 817 84 1231h3c187 2386 205 4687 73 6902l356-44c3385-413 6467 1997 6880 5383s-1997 6467-5383 6880l-4562 561c-3248 8443-9049 14852-15914 18839-4716 2739-9947 4325-15218 4638-5353 317-10737-668-15670-3077-5654-2762-10695-7353-14358-13941-1765-903-3066-2638-3324-4754-102-834-31-1650 182-2412-1057-3135-1858-6592-2357-10381l-188 26c-3372 467-6485-1889-6952-5262-467-3372 1890-6485 5262-6952l1468-208c102-3338 82-6488-52-9467zM5917 159659c-3167 99-5814-2387-5913-5554-99-3166 2387-5814 5554-5913l23606-814c3166-99 5814 2387 5913 5554 99 3166-2387 5814-5554 5913l-23606 814zm294326-23344c3154-322 5972 1973 6295 5126 323 3154-1972 5973-5126 6296l-23490 2475c-3154 322-5972-1973-6295-5126-323-3154 1972-5973 5126-6296l23490-2475zm-42787-96213c1763-2633 5327-3337 7959-1574 2633 1763 3337 5327 1574 7959l-13118 19643c-1763 2633-5327 3337-7959 1574s-3337-5327-1574-7959l13118-19643zM156321 5600c74-3166 2702-5673 5868-5598 3167 75 5673 2702 5598 5869l-596 23611c-74 3166-2702 5673-5868 5598-3166-74-5673-2702-5598-5869l596-23611zM37667 42122c-2322-2160-2452-5794-292-8117 2160-2322 5794-2453 8117-292l17267 16116c2322 2160 2452 5794 292 8116s-5794 2453-8117 293L37667 42122zm92222 220873l50160-7121c4319-18178 13706-29103 23864-40920 8345-9708 17257-20078 23761-36177 4769-11806 6548-22864 6269-33060-279-10167-2617-19569-6080-28050-6237-15278-17647-27431-31589-35672-11150-6591-23882-10677-36870-11866-12945-1185-26159 511-38324 5477-14269 5825-27099 16207-36333 31789-7157 13891-10469 27179-10580 39961-111 12850 2998 25307 8676 37447 5786 12373 13469 21167 20868 29635 11496 13159 22364 25603 26178 48559zm48127 5621l-46844 6650c147 2978 193 6111 129 9411l46259-6568c30-3350 187-6507 457-9494zm-46483 28483c325 2496 807 4788 1426 6882l44901-5524c291-2329 353-4812 147-7441h4l-4-44-32-466-46441 6594zm7828 18542c1735 1819 3664 3216 5710 4215 3131 1530 6554 2155 9960 1953 3486-206 6970-1270 10137-3109 2975-1727 5659-4146 7804-7195l-33610 4135z" fill-rule="nonzero"/></svg>