<svg xmlns="http://www.w3.org/2000/svg" viewBox="0 0 3333 3333" shape-rendering="geometricPrecision" text-rendering="geometricPrecision" image-rendering="optimizeQuality" fill-rule="evenodd" clip-rule="evenodd"><path d="M1208 2637v-293c0-45 36-81 81-81h39v-491h-46c-45 0-81-36-81-81v-311c0-45 36-81 81-81h574c55 0 96 23 124 69 20 33 30 77 30 132v762h41c45 0 81 36 81 81v293c0 45-36 81-81 81h-762c-45 0-81-36-81-81zm458-2475c-104 0-205 10-303 29-98 20-192 49-283 88-93 40-179 86-258 140-80 53-154 114-221 182-68 68-129 142-182 221s-100 166-140 258c-1 1-1 3-2 4-38 90-67 183-86 279-20 98-29 199-29 303s10 205 29 303c20 98 49 192 88 283 40 93 86 179 140 258 53 80 114 154 182 221 68 68 142 129 221 182s166 100 258 140c1 1 3 1 4 2 90 38 183 67 279 86 98 20 199 29 303 29s205-10 303-29c98-20 192-49 283-88 93-40 179-86 258-140 80-53 154-114 221-182 68-68 129-142 182-221s100-166 140-258c1-1 1-3 2-4 38-90 67-183 86-279 20-98 29-199 29-303s-10-205-29-303c-20-98-49-192-88-283-40-93-86-179-140-258-53-80-114-154-182-221-68-68-142-129-221-182s-166-100-258-140c-1-1-3-1-4-2-90-38-183-67-279-86-98-20-199-29-303-29zM1331 33c108-22 220-33 335-33s226 11 335 33c107 21 210 53 311 96 1 1 3 1 4 2 100 43 195 95 284 154s171 127 246 202c76 75 143 157 202 246 60 89 111 184 154 284 44 102 76 207 98 315s33 220 33 335-11 226-33 335c-21 107-53 210-96 311-1 1-1 3-2 4-43 100-95 195-154 284s-127 171-202 246c-75 76-157 143-246 202-89 60-184 111-284 154-102 44-207 76-315 98s-220 33-335 33-226-11-335-33c-107-21-210-53-311-96-1-1-3-1-4-2-100-43-195-95-284-154s-171-127-246-202c-76-75-143-157-202-246-60-89-111-184-154-284-44-102-76-207-98-315s-33-220-33-335 11-226 33-335c21-107 53-210 96-311 1-1 1-3 2-4 43-100 95-195 154-284s127-171 202-246c75-76 157-143 246-202 89-60 184-111 284-154 102-44 207-76 315-98zm38 2391v133h601v-133c-13-2-26-7-39-14-14-7-26-17-38-29s-22-25-29-39c-10-19-15-38-15-57v-783c0-18-1-31-3-40h-483v150c16 2 32 7 47 16 11 7 23 15 33 26 2 2 4 3 5 5 12 13 21 25 27 38 9 18 14 36 14 55v533c0 17-4 33-11 49l-3 6c-7 13-16 25-28 38s-25 23-38 31c-13 7-26 12-40 15zm298-1215c-44 0-85-7-123-20-39-14-74-35-104-62l-4-4c-29-27-52-59-67-95-16-37-23-78-23-122s8-85 23-122c16-38 39-72 71-101l2-1c30-27 64-48 102-61 38-14 79-21 123-21 45 0 87 7 125 20 39 14 74 35 105 63 31 29 55 62 71 101 16 38 23 78 23 122s-8 85-23 122c-16 38-39 71-71 99-30 28-65 48-105 62-38 13-80 20-124 20zm-69-172c20 7 43 10 69 10 28 0 51-3 71-10 19-6 35-16 50-29h1c13-12 23-26 30-41 7-17 11-37 11-60s-4-44-11-61c-7-16-17-30-30-43l-1-1c-14-13-31-23-49-30-20-7-44-11-71-11s-50 3-69 10c-18 6-34 16-48 29l-2 2c-14 13-24 27-30 43-7 17-11 37-11 61 0 23 4 43 11 60 6 14 15 27 27 39 1 1 3 2 4 3 14 13 31 23 49 29z" fill-rule="nonzero"/></svg>